<svg width="19" height="20" viewBox="0 0 19 20" fill="none" xmlns="http://www.w3.org/2000/svg">
<path d="M9.50498 19.26C8.20498 19.26 6.99164 19.0173 5.86498 18.532C4.73831 18.0467 3.74164 17.3793 2.87498 16.53C2.02564 15.6633 1.35831 14.6667 0.872977 13.54C0.387643 12.4133 0.144977 11.2 0.144977 9.9C0.144977 8.6 0.387643 7.38667 0.872977 6.26C1.35831 5.13333 2.02564 4.14533 2.87498 3.296C3.74164 2.42933 4.73831 1.75333 5.86498 1.268C6.99164 0.782666 8.20498 0.539999 9.50498 0.539999C10.805 0.539999 12.0183 0.782666 13.145 1.268C14.2716 1.75333 15.2596 2.42933 16.109 3.296C16.9756 4.14533 17.6516 5.13333 18.137 6.26C18.6223 7.38667 18.865 8.6 18.865 9.9C18.865 11.2 18.6223 12.4133 18.137 13.54C17.6516 14.6667 16.9756 15.6633 16.109 16.53C15.2596 17.3793 14.2716 18.0467 13.145 18.532C12.0183 19.0173 10.805 19.26 9.50498 19.26ZM9.50498 17.18C10.5103 17.18 11.4376 16.9893 12.287 16.608C13.1536 16.2267 13.9076 15.7067 14.549 15.048C15.2076 14.372 15.719 13.6007 16.083 12.734C16.4643 11.85 16.655 10.9053 16.655 9.9C16.655 8.89467 16.4643 7.95867 16.083 7.092C15.719 6.208 15.2076 5.43667 14.549 4.778C13.9076 4.102 13.1536 3.57333 12.287 3.192C11.4376 2.81067 10.5103 2.62 9.50498 2.62C8.49964 2.62 7.56364 2.81067 6.69698 3.192C5.84764 3.57333 5.09364 4.102 4.43498 4.778C3.79364 5.43667 3.28231 6.208 2.90098 7.092C2.53698 7.95867 2.35498 8.89467 2.35498 9.9C2.35498 10.9053 2.53698 11.85 2.90098 12.734C3.28231 13.6007 3.79364 14.372 4.43498 15.048C5.09364 15.7067 5.84764 16.2267 6.69698 16.608C7.56364 16.9893 8.49964 17.18 9.50498 17.18ZM9.50498 14.892C8.60364 14.892 7.82364 14.7187 7.16498 14.372C6.52364 14.0253 6.02098 13.5487 5.65698 12.942C5.31031 12.3353 5.11964 11.6333 5.08498 10.836C5.08498 10.7147 5.07631 10.524 5.05898 10.264C5.05898 10.004 5.05898 9.744 5.05898 9.484C5.07631 9.224 5.08498 9.03333 5.08498 8.912C5.11964 8.11467 5.31031 7.41267 5.65698 6.806C6.02098 6.19933 6.52364 5.72267 7.16498 5.376C7.82364 5.02933 8.60364 4.856 9.50498 4.856C10.545 4.856 11.3856 5.02067 12.027 5.35C12.6856 5.67933 13.171 6.08667 13.483 6.572C13.8123 7.05733 13.9856 7.534 14.003 8.002C14.003 8.17533 13.951 8.314 13.847 8.418C13.743 8.522 13.6043 8.574 13.431 8.574H11.715C11.5243 8.574 11.377 8.51333 11.273 8.392C11.1863 8.27067 11.117 8.14933 11.065 8.028C10.9263 7.716 10.7356 7.49067 10.493 7.352C10.2676 7.196 9.93831 7.118 9.50498 7.118C9.08898 7.118 8.75964 7.21333 8.51698 7.404C8.29164 7.59467 8.13564 7.83733 8.04898 8.132C7.97964 8.40933 7.93631 8.69533 7.91898 8.99C7.91898 9.11133 7.91031 9.29333 7.89298 9.536C7.89298 9.76133 7.89298 9.99533 7.89298 10.238C7.91031 10.4633 7.91898 10.6367 7.91898 10.758C7.93631 11.0353 7.97964 11.3213 8.04898 11.616C8.13564 11.9107 8.29164 12.1533 8.51698 12.344C8.75964 12.5347 9.08898 12.63 9.50498 12.63C9.93831 12.63 10.2676 12.5607 10.493 12.422C10.7356 12.266 10.9263 12.032 11.065 11.72C11.117 11.5987 11.1863 11.4773 11.273 11.356C11.377 11.2347 11.5243 11.174 11.715 11.174H13.431C13.6043 11.174 13.743 11.226 13.847 11.33C13.951 11.434 14.003 11.5727 14.003 11.746C13.9856 12.1967 13.8123 12.6733 13.483 13.176C13.171 13.6613 12.6856 14.0687 12.027 14.398C11.3856 14.7273 10.545 14.892 9.50498 14.892Z" fill="black"/>
</svg>
